<svg width="114" height="28" viewBox="0 0 114 28" fill="none" xmlns="http://www.w3.org/2000/svg">
<path d="M4.2 16.768L9.192 16.912C9.896 16.912 10.576 16.68 11.232 16.216L11.88 17.08C11.56 17.448 11.304 17.728 11.112 17.92C10.92 18.096 10.632 18.272 10.248 18.448C9.88 18.624 9.464 18.712 9 18.712L4.512 18.52C2.512 18.52 1.536 18.544 1.584 18.592C0.992 18.576 0.696 18.312 0.696 17.8C0.744 17.48 0.96 16.952 1.344 16.216C1.728 15.464 2.248 14.112 2.904 12.16C1.912 12.16 1.024 11.864 0.24 11.272L0.744 10.384C1.432 10.832 2.272 11.056 3.264 11.056C4.192 8.784 5.368 7.08 6.792 5.944C8.216 4.808 9.704 4.24 11.256 4.24C11.992 4.24 12.584 4.432 13.032 4.816C13.48 5.184 13.704 5.68 13.704 6.304C13.704 7.648 12.816 8.912 11.04 10.096C9.28 11.264 7.272 11.92 5.016 12.064C4.28 14.4 3.456 15.992 2.544 16.84C2.944 16.792 3.496 16.768 4.2 16.768ZM9.936 5.536C8.944 5.536 8.024 6.04 7.176 7.048C6.328 8.056 5.72 9.36 5.352 10.96C6.952 10.848 8.352 10.368 9.552 9.52C10.752 8.672 11.352 7.784 11.352 6.856C11.352 6.488 11.216 6.176 10.944 5.92C10.672 5.664 10.336 5.536 9.936 5.536ZM19.0813 8.824C18.1853 8.824 17.7373 8.464 17.7373 7.744C17.7373 7.344 17.8493 7.008 18.0733 6.736C18.2973 6.464 18.5853 6.328 18.9373 6.328C19.2893 6.328 19.5773 6.432 19.8013 6.64C20.0253 6.848 20.1373 7.12 20.1373 7.456C20.1373 7.792 20.0413 8.104 19.8493 8.392C19.6573 8.68 19.4013 8.824 19.0813 8.824ZM18.7693 15.904L19.2493 16.312C18.8653 17.048 18.3533 17.68 17.7133 18.208C17.0893 18.72 16.5213 18.976 16.0093 18.976C15.1133 18.976 14.6653 18.352 14.6653 17.104C14.6653 15.552 15.3053 13.528 16.5853 11.032C16.8733 10.488 17.0413 10.168 17.0893 10.072L18.1213 10.696C17.7853 11.304 17.3693 12.272 16.8733 13.6C16.3933 14.928 16.1533 15.784 16.1533 16.168C16.1533 16.536 16.2333 16.8 16.3933 16.96C16.5533 17.12 16.7453 17.2 16.9693 17.2C17.4013 17.2 18.0013 16.768 18.7693 15.904ZM44.5224 14.656L46.2264 14.632V15.616C46.0344 15.584 45.8104 15.568 45.5544 15.568C45.2984 15.568 45.0104 15.584 44.6904 15.616C44.6904 16.848 44.0984 18.096 42.9144 19.36C41.7304 20.624 40.2984 21.648 38.6184 22.432C36.9544 23.232 35.4024 23.632 33.9624 23.632C33.2104 23.632 32.5944 23.44 32.1144 23.056C31.6504 22.672 31.4184 22.168 31.4184 21.544C31.4184 20.616 32.0344 19.648 33.2664 18.64C34.4984 17.632 35.9384 16.8 37.5864 16.144C39.2344 15.488 40.7224 15.104 42.0504 14.992C41.8904 14.752 41.6424 14.544 41.3064 14.368C40.9704 14.192 40.2824 13.92 39.2424 13.552C38.2024 13.168 37.4664 12.752 37.0344 12.304C36.6024 11.84 36.3864 11.192 36.3864 10.36C36.3864 9.528 36.8344 8.576 37.7304 7.504C38.6264 6.432 39.6824 5.536 40.8984 4.816C42.1304 4.08 43.2104 3.712 44.1384 3.712C44.5544 3.712 44.8984 3.864 45.1704 4.168C45.4424 4.456 45.5784 4.816 45.5784 5.248C45.5784 5.952 45.1544 6.84 44.3064 7.912C43.4584 8.968 42.5144 9.776 41.4744 10.336L40.8984 9.52C41.5224 9.2 42.0664 8.704 42.5304 8.032C43.0104 7.344 43.2504 6.752 43.2504 6.256C43.2504 5.76 42.9864 5.512 42.4584 5.512C41.7064 5.512 40.8424 5.984 39.8664 6.928C38.9064 7.856 38.4264 8.728 38.4264 9.544C38.4264 10.104 38.5704 10.544 38.8584 10.864C39.1464 11.184 39.8744 11.584 41.0424 12.064C42.2104 12.528 43.0424 12.944 43.5384 13.312C44.0344 13.664 44.3624 14.112 44.5224 14.656ZM33.8184 20.92C33.8184 21.688 34.4424 22.072 35.6904 22.072C36.3784 22.072 37.2664 21.816 38.3544 21.304C39.4584 20.808 40.4264 20.104 41.2584 19.192C42.1064 18.296 42.5304 17.376 42.5304 16.432C42.5304 16.32 42.5064 16.152 42.4584 15.928C40.2664 16.136 38.2744 16.752 36.4824 17.776C34.7064 18.8 33.8184 19.848 33.8184 20.92ZM50.7613 14.584C51.9773 12.76 53.0333 11.52 53.9293 10.864C54.8253 10.192 55.6093 9.856 56.2813 9.856C56.9533 9.856 57.4733 10.064 57.8413 10.48C58.2093 10.88 58.3933 11.392 58.3933 12.016C58.3933 13.744 57.7693 15.344 56.5213 16.816C55.2893 18.272 53.8973 19 52.3453 19C51.6573 19 51.1133 18.88 50.7133 18.64L51.2893 17.608C52.1213 17.72 52.6413 17.776 52.8493 17.776C53.7133 17.776 54.5213 17.272 55.2733 16.264C56.0253 15.256 56.4013 14.224 56.4013 13.168C56.4013 12.768 56.2813 12.44 56.0413 12.184C55.8173 11.912 55.5213 11.776 55.1533 11.776C54.2733 11.776 53.2733 12.552 52.1533 14.104C51.0493 15.656 50.0093 17.576 49.0333 19.864C48.0733 22.168 47.2333 24.616 46.5133 27.208L45.0733 26.704C45.1053 26.608 45.4093 25.776 45.9853 24.208C46.5453 22.656 47.0973 21.112 47.6413 19.576C49.1453 15.352 49.8973 13.04 49.8973 12.64C49.8973 11.616 49.6893 10.688 49.2733 9.856L50.4733 9.256C50.9693 9.944 51.2173 10.672 51.2173 11.44C51.2173 12.192 51.0653 13.24 50.7613 14.584ZM69.3641 16.576L69.9161 16.984C69.6921 17.464 69.2761 17.92 68.6681 18.352C68.0761 18.784 67.5321 19 67.0361 19C66.0921 19 65.6201 18.504 65.6201 17.512C65.6201 17.048 65.7401 16.496 65.9801 15.856L65.0921 16.768C64.2281 17.648 63.4761 18.24 62.8361 18.544C62.2121 18.848 61.5961 19 60.9881 19C60.3801 19 59.9161 18.832 59.5961 18.496C59.2921 18.144 59.1401 17.664 59.1401 17.056C59.1401 15.936 59.5721 14.832 60.4361 13.744C61.3001 12.64 62.4041 11.744 63.7481 11.056C65.0921 10.368 66.4361 10.016 67.7801 10L67.8281 10.792L66.8201 11.008C65.3641 11.328 64.0761 11.968 62.9561 12.928C61.8521 13.888 61.3001 14.848 61.3001 15.808C61.3001 16.752 61.6841 17.224 62.4521 17.224C63.1721 17.224 64.0601 16.72 65.1161 15.712C66.1721 14.704 67.0521 13.52 67.7561 12.16L68.7641 12.76C67.7721 14.76 67.2761 16.032 67.2761 16.576C67.2761 16.8 67.3481 16.992 67.4921 17.152C67.6521 17.296 67.8041 17.368 67.9481 17.368C68.1081 17.368 68.2121 17.36 68.2601 17.344C68.3081 17.328 68.3561 17.312 68.4041 17.296C68.4521 17.264 68.5081 17.224 68.5721 17.176C68.6521 17.128 68.7161 17.08 68.7641 17.032C68.8281 16.984 68.9241 16.912 69.0521 16.816C69.1801 16.72 69.2841 16.64 69.3641 16.576ZM77.0381 10.504C77.4381 10.504 77.7661 10.64 78.0221 10.912C78.2781 11.184 78.4061 11.536 78.4061 11.968C78.4061 12.832 77.9101 13.744 76.9181 14.704L76.3421 14.248C76.5661 13.752 76.6781 13.392 76.6781 13.168C76.6781 12.736 76.4381 12.52 75.9581 12.52C75.4781 12.52 75.0221 12.824 74.5901 13.432C74.1581 14.04 73.6461 14.984 73.0541 16.264C72.4781 17.528 72.0381 18.424 71.7341 18.952L70.3661 18.352C71.2461 16.352 71.7501 15.176 71.8781 14.824C72.3101 13.576 72.5261 11.992 72.5261 10.072L73.8701 9.712C73.8221 10.752 73.7501 11.56 73.6541 12.136C73.5581 12.696 73.3261 13.616 72.9581 14.896C74.5741 11.968 75.9341 10.504 77.0381 10.504ZM88.5454 16.552L89.1454 17.08C88.2174 18.6 87.2334 19.36 86.1934 19.36C85.5534 19.36 84.8974 18.888 84.2254 17.944C83.5534 17 83.2174 16.224 83.2174 15.616C83.2174 15.232 83.7934 14.848 84.9454 14.464C85.3774 14.32 85.7694 14.104 86.1214 13.816C86.4894 13.512 86.6734 13.2 86.6734 12.88C86.6734 12.56 86.5854 12.32 86.4094 12.16C86.2334 11.984 86.0094 11.896 85.7374 11.896C83.9774 12.056 82.1374 14.424 80.2174 19L78.7534 18.496C78.7534 17.808 79.6814 15.024 81.5374 10.144C83.4094 5.264 84.7374 2.312 85.5214 1.288L86.6974 1.72C84.5374 5.48 82.7294 9.848 81.2734 14.824C82.5214 12.952 83.5934 11.704 84.4894 11.08C85.3854 10.456 86.2414 10.144 87.0574 10.144C87.5534 10.144 87.9454 10.296 88.2334 10.6C88.5374 10.904 88.6894 11.296 88.6894 11.776C88.6894 12.24 88.5694 12.664 88.3294 13.048C88.1054 13.432 87.7774 13.768 87.3454 14.056C86.7214 14.472 85.9534 14.88 85.0414 15.28C85.1854 16.032 85.4334 16.6 85.7854 16.984C86.1374 17.368 86.5374 17.56 86.9854 17.56C87.2254 17.56 87.7454 17.224 88.5454 16.552ZM93.4684 16.696L93.9724 17.104C93.4284 17.952 92.9564 18.568 92.5564 18.952C92.1724 19.32 91.7404 19.504 91.2604 19.504C90.7804 19.504 90.3884 19.312 90.0844 18.928C89.7804 18.544 89.6284 18.064 89.6284 17.488C89.6284 16.368 90.3644 13.96 91.8364 10.264C93.3084 6.552 94.8204 3.288 96.3724 0.472L97.4284 1.048C95.8604 4.088 94.4444 7.112 93.1804 10.12C91.9164 13.112 91.2844 15.264 91.2844 16.576C91.2844 17.328 91.5644 17.704 92.1244 17.704C92.5724 17.704 93.0204 17.368 93.4684 16.696ZM102.96 16.168L103.512 16.6C103.016 17.288 102.336 17.864 101.472 18.328C100.608 18.776 99.768 19 98.952 19C98.136 19 97.48 18.76 96.984 18.28C96.488 17.8 96.24 17.168 96.24 16.384C96.24 14.912 97.016 13.464 98.568 12.04C100.136 10.616 101.72 9.904 103.32 9.904C104.376 9.904 104.904 10.32 104.904 11.152C104.904 12.016 104.344 12.888 103.224 13.768C102.12 14.648 100.56 15.448 98.544 16.168C98.688 16.536 98.912 16.824 99.216 17.032C99.52 17.24 99.832 17.344 100.152 17.344C100.84 17.344 101.776 16.952 102.96 16.168ZM98.424 15.448C99.72 15 100.832 14.44 101.76 13.768C102.688 13.096 103.152 12.48 103.152 11.92C103.152 11.712 103.072 11.528 102.912 11.368C102.752 11.208 102.568 11.128 102.36 11.128C101.608 11.128 100.792 11.6 99.912 12.544C99.048 13.472 98.552 14.44 98.424 15.448ZM112.84 17.224L112.816 18.232C112.448 18.248 111.944 18.264 111.304 18.28C110.664 18.296 110.216 18.312 109.96 18.328C109.72 18.328 109.384 18.344 108.952 18.376C108.216 18.424 107.536 18.52 106.912 18.664C106.128 18.84 105.704 18.928 105.64 18.928C105.336 18.928 105.024 18.744 104.704 18.376C104.4 18.008 104.248 17.648 104.248 17.296C104.248 16.624 106.648 14.6 111.448 11.224C111.24 11.208 110.76 11.2 110.008 11.2C109.272 11.2 107.984 11.36 106.144 11.68L106 10.864C107.088 10.208 109.12 9.88 112.096 9.88C112.72 9.88 113.16 9.928 113.416 10.024C113.688 10.12 113.824 10.336 113.824 10.672C113.824 11.04 113.616 11.376 113.2 11.68C113.12 11.744 112.984 11.832 112.792 11.944C112.616 12.056 112.288 12.28 111.808 12.616C111.328 12.952 110.84 13.304 110.344 13.672C109.864 14.024 109.248 14.56 108.496 15.28C107.744 16 107.024 16.792 106.336 17.656C108.544 17.304 110.032 17.128 110.8 17.128C111.584 17.128 112.264 17.16 112.84 17.224Z" fill="#353535"/>
</svg>
